<?xml version="1.0" encoding="UTF-8"?>
<svg xmlns="http://www.w3.org/2000/svg" xmlns:xlink="http://www.w3.org/1999/xlink" width="567px" height="69px" viewBox="0 0 569 69" version="1.1">
<g id="surface1">
<path fill="#8c8c8c" d="M 296.136719 35.792969 L 270.707031 35.792969 C 267.257812 35.792969 264.238281 38.8125 264.238281 42.261719 L 264.238281 60.375 C 264.238281 63.824219 267.257812 66.84375 270.707031 66.84375 L 296.136719 66.84375 C 299.585938 66.84375 302.605469 63.824219 302.605469 60.375 L 302.605469 42.261719 C 303.035156 38.8125 300.019531 35.792969 296.136719 35.792969 M 297.433594 60.375 C 297.433594 61.238281 297 61.667969 296.136719 61.667969 L 271.136719 61.667969 C 270.273438 61.667969 269.84375 61.238281 269.84375 60.375 L 269.84375 42.261719 C 269.84375 41.398438 270.273438 40.96875 271.136719 40.96875 L 296.136719 40.96875 C 297 40.96875 297.433594 41.398438 297.433594 42.261719 Z M 297.433594 60.375 "/>
<path fill="#000000" d="M 99.144531 6.039062 L 112.9375 6.039062 L 112.9375 31.914062 L 118.972656 31.914062 L 118.972656 6.039062 L 132.765625 6.039062 L 132.765625 0.429688 L 99.144531 0.429688 Z M 86.644531 23.289062 L 62.933594 0.429688 L 58.191406 0.429688 L 58.191406 31.914062 L 63.796875 31.914062 L 63.796875 8.625 L 87.503906 31.914062 L 92.246094 31.914062 L 92.246094 0.429688 L 86.644531 0.429688 Z M 43.105469 31.914062 L 49.140625 31.914062 L 49.140625 0.429688 L 43.105469 0.429688 Z M 28.449219 23.289062 L 5.171875 0.429688 L 0 0.429688 L 0 31.914062 L 5.605469 31.914062 L 5.605469 8.625 L 29.3125 31.914062 L 34.054688 31.914062 L 34.054688 0.429688 L 28.449219 0.429688 Z M 139.664062 31.914062 L 170.269531 31.914062 L 170.269531 26.304688 L 145.265625 26.304688 L 145.265625 18.542969 L 164.664062 18.542969 L 164.664062 12.9375 L 145.265625 12.9375 L 145.265625 6.039062 L 170.269531 6.039062 L 170.269531 0.429688 L 139.664062 0.429688 Z M 207.339844 23.289062 L 183.632812 0.429688 L 178.460938 0.429688 L 178.460938 31.914062 L 184.0625 31.914062 L 184.0625 8.625 L 207.769531 31.914062 L 212.511719 31.914062 L 212.511719 0.429688 L 206.910156 0.429688 L 206.910156 23.289062 Z M 524.167969 27.601562 C 511.667969 23.289062 504.773438 20.699219 504.773438 15.523438 C 504.773438 12.074219 509.511719 8.625 519.859375 8.625 C 529.773438 8.625 536.238281 10.78125 543.566406 12.507812 L 543.566406 2.15625 C 536.238281 0.863281 532.359375 0 520.722656 0 C 499.167969 0 484.941406 6.46875 484.941406 17.25 C 484.941406 27.601562 496.582031 32.34375 512.960938 38.382812 C 525.03125 42.695312 529.34375 45.28125 529.34375 49.59375 C 529.34375 54.335938 525.03125 58.21875 513.824219 58.21875 C 503.910156 58.21875 491.410156 56.492188 484.941406 53.90625 L 484.941406 65.117188 C 493.5625 66.414062 500.890625 67.273438 512.101562 67.273438 C 538.824219 67.273438 550.894531 59.511719 550.894531 49.164062 C 550.894531 38.382812 541.414062 33.636719 524.167969 27.601562 Z M 462.097656 5.175781 C 455.632812 2.15625 443.992188 0.429688 433.214844 0.429688 L 393.128906 0.429688 L 393.128906 67.273438 L 433.214844 67.273438 C 443.5625 67.273438 455.632812 65.550781 462.097656 62.53125 C 477.613281 55.632812 482.355469 44.417969 482.355469 34.070312 C 482.789062 23.289062 477.613281 12.074219 462.097656 5.175781 Z M 428.042969 57.789062 L 415.113281 57.789062 L 415.113281 9.488281 L 428.042969 9.488281 C 447.871094 9.488281 459.941406 18.113281 459.941406 33.636719 C 459.941406 49.59375 447.441406 57.789062 428.042969 57.789062 Z M 245.273438 0.429688 L 221.996094 0.429688 L 221.996094 31.914062 L 245.273438 31.914062 C 249.152344 31.914062 252.601562 30.1875 255.1875 27.167969 C 257.34375 24.582031 258.636719 20.699219 258.636719 15.957031 C 258.636719 11.644531 257.34375 7.761719 255.1875 4.742188 C 252.601562 2.15625 249.585938 0.429688 245.273438 0.429688 Z M 245.703125 26.304688 L 228.03125 26.304688 L 228.03125 6.039062 L 245.703125 6.039062 C 251.308594 6.039062 253.464844 11.644531 253.464844 16.386719 C 253.03125 21.132812 250.878906 26.304688 245.703125 26.304688 Z M 296.136719 0.429688 L 270.707031 0.429688 C 267.257812 0.429688 264.238281 3.449219 264.238281 6.898438 L 264.238281 25.011719 C 264.238281 28.460938 267.257812 31.480469 270.707031 31.480469 L 296.136719 31.480469 C 299.585938 31.480469 302.605469 28.460938 302.605469 25.011719 L 302.605469 7.332031 C 303.035156 3.449219 300.019531 0.429688 296.136719 0.429688 Z M 297.433594 25.445312 C 297.433594 26.304688 297 26.738281 296.136719 26.738281 L 271.136719 26.738281 C 270.273438 26.738281 269.84375 26.304688 269.84375 25.445312 L 269.84375 7.332031 C 269.84375 6.46875 270.273438 6.039062 271.136719 6.039062 L 296.136719 6.039062 C 297 6.039062 297.433594 6.46875 297.433594 7.332031 Z M 297.433594 25.445312 "/>
<path fill="#cc171f" d="M 365.539062 30.617188 C 365.539062 30.617188 384.074219 27.601562 384.074219 15.957031 C 384.074219 4.742188 364.246094 0 343.125 0 C 324.15625 0 311.65625 2.15625 311.65625 2.15625 L 311.65625 12.507812 C 320.277344 10.351562 328.46875 8.625 339.675781 8.625 C 351.746094 8.625 360.796875 12.074219 360.796875 17.25 C 360.796875 23.289062 351.746094 26.738281 331.917969 26.738281 L 323.296875 26.738281 L 323.296875 36.226562 L 331.917969 36.226562 C 352.609375 36.226562 364.246094 39.242188 364.246094 47.007812 C 364.246094 53.90625 353.902344 57.789062 340.539062 57.789062 C 328.898438 57.789062 318.554688 55.199219 310.363281 53.042969 L 310.363281 64.257812 C 314.675781 65.117188 325.449219 67.273438 345.28125 67.273438 C 367.695312 67.273438 387.09375 59.945312 387.09375 47.4375 C 387.09375 36.65625 373.296875 30.617188 365.539062 30.617188 "/>
</g>
</svg>
